<svg width="95" height="86" viewBox="0 0 95 86" fill="none" xmlns="http://www.w3.org/2000/svg">
<path d="M20.5282 0.636719V85.0004H0.384766V0.636719H20.5282Z" fill="#090808"/>
<path d="M74.1721 57.6893V21.7276H94.2743V85.0004H75.0783V73.2191H74.4192C73.0187 77.0913 70.6294 80.167 67.2516 82.4464C63.9012 84.6983 59.8506 85.8242 55.0996 85.8242C50.7881 85.8242 46.9983 84.8356 43.7303 82.8583C40.4623 80.881 37.9221 78.1211 36.1096 74.5785C34.2971 71.0084 33.3771 66.8342 33.3496 62.0558V21.7276H53.4931V58.1012C53.5205 61.534 54.4268 64.239 56.2118 66.2163C57.9969 68.1935 60.4273 69.1822 63.503 69.1822C65.5078 69.1822 67.3065 68.7428 68.8993 67.864C70.5196 66.9577 71.7966 65.6533 72.7303 63.9506C73.6915 62.2205 74.1721 60.1334 74.1721 57.6893Z" fill="#090808"/>
</svg>
