<svg width="163" height="87" viewBox="0 0 163 87" fill="none" xmlns="http://www.w3.org/2000/svg">
<path d="M20.5282 0.636719V85.0004H0.384766V0.636719H20.5282Z" fill="#090808"/>
<path d="M74.1721 57.6893V21.7276H94.2743V85.0004H75.0783V73.2191H74.4192C73.0187 77.0913 70.6294 80.167 67.2516 82.4464C63.9012 84.6983 59.8506 85.8242 55.0996 85.8242C50.7881 85.8242 46.9983 84.8356 43.7303 82.8583C40.4623 80.881 37.9221 78.1211 36.1096 74.5785C34.2971 71.0084 33.3771 66.8342 33.3496 62.0558V21.7276H53.4931V58.1012C53.5205 61.534 54.4268 64.239 56.2118 66.2163C57.9969 68.1935 60.4273 69.1822 63.503 69.1822C65.5078 69.1822 67.3065 68.7428 68.8993 67.864C70.5196 66.9577 71.7966 65.6533 72.7303 63.9506C73.6915 62.2205 74.1721 60.1334 74.1721 57.6893Z" fill="#090808"/>
<path d="M124.932 86.0714C120.895 86.0714 117.312 85.3986 114.181 84.0529C111.078 82.6798 108.62 80.6202 106.807 77.8739C105.022 75.1003 104.13 71.6263 104.13 67.4521C104.13 63.9369 104.748 60.971 105.983 58.5543C107.219 56.1377 108.922 54.1741 111.091 52.6637C113.261 51.1533 115.76 50.0136 118.589 49.2447C121.417 48.4483 124.438 47.9128 127.651 47.6381C131.249 47.3086 134.146 46.9653 136.343 46.6083C138.54 46.2238 140.133 45.6883 141.121 45.0018C142.137 44.2878 142.645 43.2854 142.645 41.9947V41.7887C142.645 39.6741 141.918 38.0401 140.462 36.8867C139.007 35.7333 137.043 35.1566 134.572 35.1566C131.908 35.1566 129.766 35.7333 128.145 36.8867C126.525 38.0401 125.495 39.6329 125.056 41.6651L106.478 41.006C107.027 37.1613 108.441 33.7286 110.721 30.7077C113.028 27.6595 116.186 25.2702 120.195 23.5401C124.232 21.7826 129.079 20.9038 134.736 20.9038C138.773 20.9038 142.494 21.3844 145.9 22.3455C149.305 23.2792 152.271 24.6523 154.797 26.4648C157.324 28.2499 159.274 30.4469 160.647 33.0558C162.047 35.6647 162.748 38.6443 162.748 41.9947V85.0004H143.799V76.185H143.305C142.179 78.3271 140.737 80.1396 138.979 81.6225C137.249 83.1055 135.203 84.2177 132.841 84.9592C130.507 85.7006 127.871 86.0714 124.932 86.0714ZM131.153 72.8896C133.322 72.8896 135.272 72.4502 137.002 71.5714C138.76 70.6926 140.16 69.4843 141.204 67.9464C142.247 66.381 142.769 64.5685 142.769 62.5089V56.4947C142.192 56.7968 141.492 57.0714 140.668 57.3185C139.872 57.5657 138.993 57.7991 138.032 58.0188C137.071 58.2385 136.082 58.4308 135.066 58.5955C134.05 58.7603 133.075 58.9113 132.141 59.0487C130.246 59.3507 128.626 59.8176 127.28 60.4492C125.962 61.0808 124.946 61.9047 124.232 62.9208C123.546 63.9095 123.202 65.0903 123.202 66.4634C123.202 68.5505 123.944 70.1434 125.427 71.2418C126.937 72.3403 128.846 72.8896 131.153 72.8896Z" fill="#090808"/>
</svg>
