<svg width="59" height="16" viewBox="0 0 59 16" fill="none" xmlns="http://www.w3.org/2000/svg">
<path d="M3.87138 0V15.7766H0V0H3.87138Z" fill="#F3F0E1"/>
<path d="M14.1812 10.6692V3.94415H18.0447V15.7766H14.3554V13.5734H14.2287C13.9595 14.2975 13.5004 14.8727 12.8512 15.299C12.2073 15.7201 11.4288 15.9307 10.5157 15.9307C9.68703 15.9307 8.95867 15.7458 8.33059 15.376C7.70252 15.0063 7.2143 14.4901 6.86596 13.8276C6.51761 13.16 6.3408 12.3794 6.33553 11.4858V3.94415H10.2069V10.7463C10.2122 11.3882 10.3864 11.8941 10.7294 12.2638C11.0725 12.6336 11.5396 12.8185 12.1307 12.8185C12.516 12.8185 12.8617 12.7363 13.1678 12.572C13.4792 12.4025 13.7247 12.1586 13.9041 11.8402C14.0888 11.5166 14.1812 11.1263 14.1812 10.6692Z" fill="#F3F0E1"/>
<path d="M23.9368 15.9769C23.161 15.9769 22.4722 15.8511 21.8705 15.5994C21.2741 15.3426 20.8017 14.9575 20.4534 14.4439C20.1103 13.9252 19.9388 13.2756 19.9388 12.4949C19.9388 11.8376 20.0575 11.2829 20.2951 10.831C20.5326 10.3791 20.8598 10.0119 21.2768 9.72942C21.6937 9.44696 22.174 9.23383 22.7176 9.09003C23.2613 8.9411 23.8418 8.84096 24.4594 8.7896C25.1508 8.72797 25.7076 8.66378 26.1298 8.59702C26.5521 8.52512 26.8582 8.42497 27.0482 8.29658C27.2435 8.16306 27.3411 7.97561 27.3411 7.73423V7.69572C27.3411 7.30027 27.2013 6.9947 26.9215 6.77901C26.6418 6.56331 26.2644 6.45546 25.7894 6.45546C25.2774 6.45546 24.8658 6.56331 24.5544 6.77901C24.243 6.9947 24.045 7.29257 23.9606 7.67261L20.3901 7.54935C20.4956 6.83037 20.7674 6.18841 21.2055 5.6235C21.6489 5.05344 22.2558 4.60665 23.0264 4.2831C23.8023 3.95442 24.7338 3.79008 25.8211 3.79008C26.5969 3.79008 27.3121 3.87996 27.9666 4.0597C28.621 4.23431 29.1911 4.49109 29.6766 4.83004C30.1622 5.16386 30.5369 5.57471 30.8008 6.06259C31.07 6.55047 31.2046 7.10769 31.2046 7.73423V15.7766H27.5628V14.1281H27.4678C27.2514 14.5286 26.9743 14.8676 26.6365 15.1449C26.304 15.4222 25.9108 15.6302 25.4569 15.7689C25.0083 15.9076 24.5016 15.9769 23.9368 15.9769ZM25.1323 13.5118C25.5493 13.5118 25.924 13.4296 26.2565 13.2653C26.5943 13.1009 26.8635 12.875 27.064 12.5874C27.2646 12.2947 27.3649 11.9557 27.3649 11.5705V10.4458C27.254 10.5023 27.1195 10.5537 26.9611 10.5999C26.8081 10.6461 26.6392 10.6898 26.4544 10.7309C26.2697 10.7719 26.0797 10.8079 25.8844 10.8387C25.6891 10.8695 25.5018 10.8978 25.3223 10.9234C24.9581 10.9799 24.6467 11.0672 24.3881 11.1854C24.1348 11.3035 23.9395 11.4576 23.8023 11.6476C23.6703 11.8325 23.6043 12.0533 23.6043 12.3101C23.6043 12.7004 23.7468 12.9982 24.0319 13.2037C24.3221 13.4091 24.689 13.5118 25.1323 13.5118Z" fill="#F3F0E1"/>
<path d="M37.4431 9.02841V15.7766H33.5718V3.94415H37.2531V6.11651H37.3877C37.6569 5.39239 38.1161 4.82491 38.7653 4.41406C39.4144 3.99807 40.1877 3.79008 41.0849 3.79008C41.94 3.79008 42.6815 3.97753 43.3096 4.35243C43.9429 4.7222 44.4338 5.24089 44.7821 5.90852C45.1357 6.57102 45.3099 7.34649 45.3046 8.23495V15.7766H41.4333V8.97448C41.4385 8.31712 41.267 7.80356 40.9187 7.4338C40.5756 7.06403 40.0979 6.87915 39.4857 6.87915C39.0793 6.87915 38.7204 6.96646 38.409 7.14107C38.1029 7.31054 37.8654 7.55449 37.6965 7.87289C37.5329 8.1913 37.4484 8.57647 37.4431 9.02841Z" fill="#F3F0E1"/>
<path d="M51.1295 15.9769C50.3537 15.9769 49.6649 15.8511 49.0632 15.5994C48.4668 15.3426 47.9944 14.9575 47.6461 14.4439C47.303 13.9252 47.1315 13.2756 47.1315 12.4949C47.1315 11.8376 47.2502 11.2829 47.4877 10.831C47.7252 10.3791 48.0525 10.0119 48.4694 9.72942C48.8864 9.44696 49.3667 9.23383 49.9103 9.09003C50.4539 8.9411 51.0345 8.84096 51.652 8.7896C52.3435 8.72797 52.9003 8.66378 53.3225 8.59702C53.7448 8.52512 54.0509 8.42497 54.2409 8.29658C54.4362 8.16306 54.5338 7.97561 54.5338 7.73423V7.69572C54.5338 7.30027 54.3939 6.9947 54.1142 6.77901C53.8345 6.56331 53.4571 6.45546 52.9821 6.45546C52.4701 6.45546 52.0585 6.56331 51.7471 6.77901C51.4357 6.9947 51.2377 7.29257 51.1533 7.67261L47.5827 7.54935C47.6883 6.83037 47.9601 6.18841 48.3982 5.6235C48.8415 5.05344 49.4485 4.60665 50.2191 4.2831C50.9949 3.95442 51.9265 3.79008 53.0138 3.79008C53.7896 3.79008 54.5048 3.87996 55.1593 4.0597C55.8137 4.23431 56.3837 4.49109 56.8693 4.83004C57.3549 5.16386 57.7296 5.57471 57.9935 6.06259C58.2627 6.55047 58.3973 7.10769 58.3973 7.73423V15.7766H54.7555V14.1281H54.6605C54.4441 14.5286 54.167 14.8676 53.8292 15.1449C53.4967 15.4222 53.1035 15.6302 52.6496 15.7689C52.201 15.9076 51.6943 15.9769 51.1295 15.9769ZM52.325 13.5118C52.7419 13.5118 53.1167 13.4296 53.4492 13.2653C53.787 13.1009 54.0562 12.875 54.2567 12.5874C54.4573 12.2947 54.5576 11.9557 54.5576 11.5705V10.4458C54.4467 10.5023 54.3121 10.5537 54.1538 10.5999C54.0007 10.6461 53.8318 10.6898 53.6471 10.7309C53.4624 10.7719 53.2724 10.8079 53.0771 10.8387C52.8818 10.8695 52.6944 10.8978 52.515 10.9234C52.1508 10.9799 51.8394 11.0672 51.5808 11.1854C51.3275 11.3035 51.1322 11.4576 50.9949 11.6476C50.863 11.8325 50.797 12.0533 50.797 12.3101C50.797 12.7004 50.9395 12.9982 51.2245 13.2037C51.5148 13.4091 51.8816 13.5118 52.325 13.5118Z" fill="#F3F0E1"/>
</svg>
